HIERARCHY
ROOT pelvis
{
  OFFSET 0 100 0
  CHANNELS 6 Xposition Yposition Zposition Zrotation Xrotation Yrotation
  JOINT pelvis_right_femur
  {
    OFFSET -10.78128 -3.44521 -0.5502486
    CHANNELS 3 Zrotation Xrotation Yrotation
    JOINT right_femur_tibia
    {
      OFFSET -0.8047443 -44.0398 -0.1307829
      CHANNELS 3 Zrotation Xrotation Yrotation
      JOINT right_tibia_foot
      {
        OFFSET 3.006224 -47.83518 -5
        CHANNELS 3 Zrotation Xrotation Yrotation
        End Site
        {
          OFFSET 0 -5 15
        }
      }
    }
  }
  JOINT pelvis_left_femur
  {
    OFFSET 10.78128 -3.44521 -0.5502486
    CHANNELS 3 Zrotation Xrotation Yrotation
    JOINT left_femur_tibia
    {
      OFFSET 0.8047443 -44.0398 -0.1307829
      CHANNELS 3 Zrotation Xrotation Yrotation
      JOINT left_tibia_foot
      {
        OFFSET -4.370144 -48.10324 -4.275266
        CHANNELS 3 Zrotation Xrotation Yrotation
        End Site
        {
          OFFSET 0 -5 15
        }
      }
    }
  }
  JOINT pelvis_spine1
  {
    OFFSET 0 6.468898 -3.129235
    CHANNELS 3 Zrotation Xrotation Yrotation
    JOINT spine1
    {
      OFFSET 0 23.15396 4.99043
      CHANNELS 3 Zrotation Xrotation Yrotation
      JOINT spine2
      {
        OFFSET 0 20.79997 -5.064912
        CHANNELS 3 Zrotation Xrotation Yrotation
        JOINT neck
        {
          OFFSET 0 14.38658 9.616178
          CHANNELS 3 Zrotation Xrotation Yrotation
          End Site
          {
            OFFSET 0 20 0
          }
        }
      }
      JOINT right_manubrium
      {
        OFFSET -5.722621 16.35077 3.967754
        CHANNELS 3 Zrotation Xrotation Yrotation
        JOINT right_clavicle
        {
          OFFSET -13.16364 1.694482 -4.693211
          CHANNELS 3 Zrotation Xrotation Yrotation
          JOINT right_humerus
          {
            OFFSET -28.5034 -0.3100689 -2.792744
            CHANNELS 3 Zrotation Xrotation Yrotation
            JOINT right_radius
            {
              OFFSET -25.15693 0.02248979 -1.271978
              CHANNELS 3 Zrotation Xrotation Yrotation
              End Site
              {
                OFFSET -15 0 0
              }
            }
          }
        }
      }
      JOINT left_manubrium
      {
        OFFSET 5.722621 16.35077 3.967754
        CHANNELS 3 Zrotation Xrotation Yrotation
        JOINT left_clavicle
        {
          OFFSET 13.16364 1.694482 -4.693211
          CHANNELS 3 Zrotation Xrotation Yrotation
          JOINT left_humerus
          {
            OFFSET 29.39168 -1.063119 -2.237045
            CHANNELS 3 Zrotation Xrotation Yrotation
            JOINT left_radius
            {
              OFFSET 24.59957 -0.9528479 0.9047498
              CHANNELS 3 Zrotation Xrotation Yrotation
              End Site
              {
                OFFSET 15 -0 -0
              }
            }
          }
        }
      }
    }
  }
}
MOTION
Frames: 11
Frame Time: 0.0416666666667
801.9654 102.5654 1981.464 3.187059 -2.755714 36.57908 4.427175 5.847162 3.157744 -0 8.361113 -0 -6.755633 -12.68767 -1.699853 -0.8711207 -20.25431 -5.210399 -0 48.26802 -0 -5.040678 -6.17685 16.34834 -2.097733 1.722457 7.297821 1.392417 9.151301 -4.521934 1.076937 23.5106 5.39143 2.765655 -20.23123 5.861382 3.709695 -17.95067 11.95745 81.78578 32.44862 -10.66842 -0 0 13.99762 -17.23107 10.22833 11.30911 3.934117 -18.56884 -2.023647 -90.61777 24.38788 19.69405 0 0 -17.42853 1.529449 8.59268 12.05732
805.216 101.6878 1985.511 3.079566 -2.823968 36.15817 4.37046 9.296672 3.20117 -0 7.262138 -0 -5.53595 -14.0757 -1.202736 0.7354659 -24.64853 -3.640677 -0 38.15607 -0 -4.64821 -6.717979 17.89502 -1.97828 1.802484 7.528552 0.9010044 9.235542 -4.103812 1.012703 23.264 5.394815 2.557991 -19.65829 5.866442 3.007657 -19.41821 11.86652 80.18895 31.79669 -7.842818 -0 0 16.97248 -18.88329 9.992507 12.48484 4.249525 -18.20526 -1.844184 -90.97109 23.80865 20.89031 0 0 -16.80645 1.284992 7.918525 12.24802
808.7168 100.2975 1989.67 2.593023 -2.852697 35.69573 4.378462 12.25112 3.206415 -0 7.235587 -0 -4.297609 -15.72591 -0.7523484 2.289028 -27.70522 -2.389088 -0 27.69188 -0 -4.367818 -6.790881 18.89212 -1.637378 1.732643 7.465617 0.5464707 9.067439 -3.775663 1.007247 22.95607 5.351386 2.321933 -19.10457 5.887431 2.417431 -20.61509 11.71757 78.62569 30.85456 -5.09236 -0 0 19.74033 -20.45848 9.730391 13.74683 4.334313 -17.49775 -1.777468 -91.42646 23.3402 22.16025 0 0 -15.44452 0.7935212 7.527047 12.73027
812.5775 98.63751 1994.059 2.023306 -2.800525 35.13453 4.13303 14.91209 3.107403 -0 8.63019 -0 -3.108006 -17.15145 -0.2811335 3.150328 -29.28051 -1.88605 -0 19.24615 -0 -4.131698 -6.365555 19.26167 -1.314326 1.39147 7.341592 0.308535 8.742487 -3.521567 1.090196 22.6823 5.268987 2.136979 -18.63027 5.931708 2.007424 -21.37891 11.50687 77.42485 29.72309 -2.937944 -0 0 21.87026 -21.87916 9.467214 14.91217 4.18533 -16.58765 -1.801598 -91.93849 23.00652 23.40341 0 0 -13.48111 0.2071955 7.461844 13.33791
816.8614 97.03644 1998.764 1.771542 -2.657956 34.48075 3.344771 17.35497 2.972839 -0 11.80494 -0 -2.085705 -17.3123 0.1594324 2.750431 -29.30213 -2.442622 -0 14.69462 -0 -3.84204 -5.808808 19.22127 -1.334981 0.731001 7.387238 0.1199631 8.429188 -3.309948 1.294909 22.52582 5.16728 2.088744 -18.31324 6.024891 1.77743 -21.60326 11.20715 76.93305 28.61698 -1.831543 -0 0 22.96779 -23.02498 9.210228 15.71801 3.905384 -15.71147 -1.843999 -92.45159 22.84075 24.45838 0 0 -11.2229 -0.2860673 7.669894 13.87849
821.5486 95.83195 2003.795 2.163626 -2.480117 33.85161 1.933443 19.36637 3.009872 -0 17.15031 -0 -1.356794 -15.01217 0.3690944 0.9742783 -27.86425 -3.963273 -0 14.54763 -0 -3.426263 -5.699303 19.18399 -1.934601 -0.1307996 7.684134 -0.1176705 8.334032 -3.1033 1.611124 22.50286 5.100515 2.237057 -18.19746 6.190163 1.70979 -21.2943 10.83494 77.34003 27.83989 -1.910356 -0 0 22.8488 -23.7706 8.963609 15.96602 3.650893 -15.11079 -1.845835 -92.89104 22.83691 25.16968 0 0 -9.114226 -0.5318644 7.950982 14.22652
826.5062 95.28688 2009.056 3.20205 -2.381004 33.47312 0.2015328 20.28857 3.354501 -0 24.95043 -0 -0.9522081 -9.813569 0.1114895 -1.639021 -25.25083 -5.889013 -0 17.5048 -0 -2.81915 -6.384495 19.43682 -3.059612 -0.9094983 8.033228 -0.4508437 8.610548 -2.915176 1.938914 22.55642 5.142978 2.567442 -18.22211 6.397403 1.884205 -20.57479 10.53921 78.4922 27.67482 -2.891311 -0 0 21.62478 -24.08552 8.791142 15.71046 3.510444 -14.92161 -1.853467 -93.10546 22.88907 25.4147 0 0 -7.601143 -0.4624144 8.108366 14.33269
831.5084 95.52383 2014.343 4.493215 -2.474218 33.57569 -1.206731 19.17377 3.793028 -0 34.94141 -0 -0.7469127 -2.783652 -0.7186711 -4.16071 -21.75432 -7.517665 -0 21.151 -0 -1.903882 -7.648653 19.84483 -4.345594 -1.301632 8.010358 -0.7716699 9.261633 -2.876895 2.116199 22.6334 5.321566 2.958376 -18.18805 6.537324 2.501768 -19.60394 10.56752 79.88891 28.22475 -4.271443 -0 0 19.58832 -24.09092 8.867532 15.28772 3.40746 -15.13505 -2.036124 -92.82934 22.79355 25.03838 0 0 -6.957131 -0.08667969 8.233675 14.11456
836.3134 96.49319 2019.41 5.498209 -2.799844 34.2385 -1.72768 15.38019 3.895235 -0 45.82994 -0 -0.6163006 3.921294 -2.03498 -5.812821 -17.46635 -8.405658 -0 23.41765 -0 -0.6024009 -8.923784 19.94536 -5.341078 -1.192647 7.248243 -0.8460554 10.12649 -3.208718 2.024376 22.75272 5.577167 3.234971 -17.86374 6.486128 3.689258 -18.48342 11.05618 80.9874 29.35789 -5.690755 -0 0 17.01842 -23.96734 9.379356 15.06636 3.167076 -15.67999 -2.560847 -91.79941 22.38298 23.82578 0 0 -7.251612 0.5525727 8.71952 13.42942
840.7396 97.98856 2024.054 5.88383 -3.294656 35.32624 -1.339071 9.145782 3.507615 -0 55.4346 -0 -0.6362945 8.383176 -3.583637 -6.342556 -12.40873 -8.535874 -0 23.52328 -0 0.9825557 -9.792164 19.38011 -5.787651 -0.7310007 5.705521 -0.4950113 10.97361 -4.065042 1.664834 22.96967 5.820483 3.299025 -17.14976 6.203068 5.306591 -17.24537 11.88321 81.54732 30.84538 -7.087125 -0 0 14.10704 -23.81728 10.33227 15.17147 2.700343 -16.52013 -3.440144 -89.97914 21.66642 21.64271 0 0 -8.456718 1.397171 9.901588 12.22906
844.6905 99.70936 2028.177 5.668601 -3.828089 36.56674 -0.4841329 1.63747 2.870788 -0 61.60293 -0 -0.9973271 9.759612 -5.054196 -6.002595 -6.851405 -8.230719 -0 21.84243 -0 2.600903 -10.18707 18.1946 -5.727861 -0.2058466 3.68776 0.2601083 11.60558 -5.386572 1.142262 23.30666 5.996859 3.188535 -16.09254 5.746678 7.018377 -15.91896 12.77006 81.66334 32.48775 -8.545993 -0 0 11.03685 -23.62581 11.51646 15.4644 2.092857 -17.63375 -4.511468 -87.64941 20.82831 18.60993 0 0 -10.48318 2.351534 11.79759 10.67432
